{"patterns": [{"steps": [{"note": 0, "gate": 0.9, "vel": 127, "active": true}, {"note": 0, "gate": 0.9, "vel": 127, "active": true}, {"note": 0, "gate": 0.9, "vel": 127, "active": true}, {"note": 0, "gate": 0.9, "vel": 127, "active": true}, {"note": 0, "gate": 0.9, "vel": 127, "active": true}, {"note": 0, "gate": 0.9, "vel": 127, "active": true}, {"note": 0, "gate": 0.9, "vel": 127, "active": true}, {"note": 0, "gate": 0.9, "vel": 127, "active": true}, {"note": 0, "gate": 0.9, "vel": 127, "active": true}, {"note": 0, "gate": 0.9, "vel": 127, "active": true}, {"note": 53, "gate": 0.9, "vel": 127, "active": true}, {"note": 0, "gate": 0.9, "vel": 127, "active": true}, {"note": 50, "gate": 0.9, "vel": 127, "active": true}, {"note": 0, "gate": 0.9, "vel": 127, "active": true}, {"note": 52, "gate": 0.9, "vel": 127, "active": true}, {"note": 0, "gate": 0.9, "vel": 127, "active": true}, {"note": 39, "gate": 0.9, "vel": 127, "active": true}, {"note": 39, "gate": 0.9, "vel": 127, "active": true}, {"note": 0, "gate": 0.9, "vel": 127, "active": true}, {"note": 39, "gate": 0.9, "vel": 127, "active": true}, {"note": 39, "gate": 0.9, "vel": 127, "active": true}, {"note": 39, "gate": 0.9, "vel": 127, "active": true}, {"note": 39, "gate": 0.9, "vel": 127, "active": true}, {"note": 0, "gate": 0.9, "vel": 127, "active": true}, {"note": 39, "gate": 0.9, "vel": 127, "active": true}, {"note": 0, "gate": 0.9, "vel": 127, "active": true}, {"note": 0, "gate": 0.9, "vel": 127, "active": true}, {"note": 53, "gate": 0.9, "vel": 127, "active": true}, {"note": 0, "gate": 0.9, "vel": 127, "active": true}, {"note": 50, "gate": 0.9, "vel": 127, "active": true}, {"note": 50, "gate": 0.9, "vel": 127, "active": true}, {"note": 0, "gate": 0.9, "vel": 127, "active": true}]}, {"steps": [{"note": 0, "gate": 0.9, "vel": 127, "active": true}, {"note": 0, "gate": 0.9, "vel": 127, "active": true}, {"note": 0, "gate": 0.9, "vel": 127, "active": true}, {"note": 0, "gate": 0.9, "vel": 127, "active": true}, {"note": 0, "gate": 0.9, "vel": 127, "active": true}, {"note": 0, "gate": 0.9, "vel": 127, "active": true}, {"note": 0, "gate": 0.9, "vel": 127, "active": true}, {"note": 0, "gate": 0.9, "vel": 127, "active": true}]}, {"steps": [{"note": 64, "gate": 0.9, "vel": 127, "active": true}, {"note": 69, "gate": 0.9, "vel": 127, "active": true}, {"note": 64, "gate": 0.9, "vel": 127, "active": true}, {"note": 69, "gate": 0.9, "vel": 127, "active": true}, {"note": 73, "gate": 0.9, "vel": 127, "active": true}, {"note": 0, "gate": 0.9, "vel": 127, "active": true}, {"note": 64, "gate": 0.9, "vel": 127, "active": true}, {"note": 69, "gate": 0.9, "vel": 127, "active": true}, {"note": 64, "gate": 0.9, "vel": 127, "active": true}, {"note": 69, "gate": 0.9, "vel": 127, "active": true}, {"note": 73, "gate": 0.9, "vel": 127, "active": true}, {"note": 0, "gate": 0.9, "vel": 127, "active": true}, {"note": 64, "gate": 0.9, "vel": 127, "active": true}, {"note": 69, "gate": 0.9, "vel": 127, "active": true}, {"note": 73, "gate": 0.9, "vel": 127, "active": true}, {"note": 0, "gate": 0.9, "vel": 127, "active": true}]}, {"steps": [{"note": 64, "gate": 0.9, "vel": 127, "active": true}, {"note": 68, "gate": 0.9, "vel": 127, "active": true}, {"note": 64, "gate": 0.9, "vel": 127, "active": true}, {"note": 68, "gate": 0.9, "vel": 127, "active": true}, {"note": 73, "gate": 0.9, "vel": 127, "active": true}, {"note": 0, "gate": 0.9, "vel": 127, "active": true}, {"note": 64, "gate": 0.9, "vel": 127, "active": true}, {"note": 68, "gate": 0.9, "vel": 127, "active": true}, {"note": 64, "gate": 0.9, "vel": 127, "active": true}, {"note": 68, "gate": 0.9, "vel": 127, "active": true}, {"note": 73, "gate": 0.9, "vel": 127, "active": true}, {"note": 0, "gate": 0.9, "vel": 127, "active": true}, {"note": 64, "gate": 0.9, "vel": 127, "active": true}, {"note": 68, "gate": 0.9, "vel": 127, "active": true}, {"note": 73, "gate": 0.9, "vel": 127, "active": true}, {"note": 0, "gate": 0.9, "vel": 127, "active": true}]}, {"steps": [{"note": 0, "gate": 0.9, "vel": 127, "active": true}, {"note": 0, "gate": 0.9, "vel": 127, "active": true}, {"note": 0, "gate": 0.9, "vel": 127, "active": true}, {"note": 0, "gate": 0.9, "vel": 127, "active": true}, {"note": 0, "gate": 0.9, "vel": 127, "active": true}, {"note": 0, "gate": 0.9, "vel": 127, "active": true}, {"note": 0, "gate": 0.9, "vel": 127, "active": true}, {"note": 0, "gate": 0.9, "vel": 127, "active": true}]}, {"steps": [{"note": 0, "gate": 0.9, "vel": 127, "active": true}, {"note": 0, "gate": 0.9, "vel": 127, "active": true}, {"note": 0, "gate": 0.9, "vel": 127, "active": true}, {"note": 0, "gate": 0.9, "vel": 127, "active": true}, {"note": 0, "gate": 0.9, "vel": 127, "active": true}, {"note": 0, "gate": 0.9, "vel": 127, "active": true}, {"note": 0, "gate": 0.9, "vel": 127, "active": true}, {"note": 0, "gate": 0.9, "vel": 127, "active": true}]}, {"steps": [{"note": 0, "gate": 0.9, "vel": 127, "active": true}, {"note": 0, "gate": 0.9, "vel": 127, "active": true}, {"note": 0, "gate": 0.9, "vel": 127, "active": true}, {"note": 0, "gate": 0.9, "vel": 127, "active": true}, {"note": 0, "gate": 0.9, "vel": 127, "active": true}, {"note": 0, "gate": 0.9, "vel": 127, "active": true}, {"note": 0, "gate": 0.9, "vel": 127, "active": true}, {"note": 0, "gate": 0.9, "vel": 127, "active": true}]}, {"steps": [{"note": 0, "gate": 0.9, "vel": 127, "active": true}, {"note": 0, "gate": 0.9, "vel": 127, "active": true}, {"note": 0, "gate": 0.9, "vel": 127, "active": true}, {"note": 0, "gate": 0.9, "vel": 127, "active": true}, {"note": 0, "gate": 0.9, "vel": 127, "active": true}, {"note": 0, "gate": 0.9, "vel": 127, "active": true}, {"note": 0, "gate": 0.9, "vel": 127, "active": true}, {"note": 0, "gate": 0.9, "vel": 127, "active": true}]}]}